<svg xmlns="http://www.w3.org/2000/svg" width="16" height="16" viewBox="0 0 16 16"><defs><style>.a{fill:rgba(12,48,88,0.62);}</style></defs><g transform="translate(-2 -2)"><path class="a" d="M5.68,3.6A2.082,2.082,0,0,0,3.6,5.68,10.732,10.732,0,0,0,14.32,16.4a2.083,2.083,0,0,0,2.08-2.08,2.036,2.036,0,0,0-.017-.262l-3.7-.848c-.074.141-.154.294-.228.436-.365.7-.629,1.2-1.3.93A9.5,9.5,0,0,1,5.413,8.811c-.286-.628.258-.913.948-1.273l.43-.225-.848-3.7A2.083,2.083,0,0,0,5.68,3.6M14.32,18A12.334,12.334,0,0,1,2,5.68,3.684,3.684,0,0,1,5.68,2a3.606,3.606,0,0,1,.613.052,3.481,3.481,0,0,1,.58.146.8.8,0,0,1,.518.578l1.1,4.771a.8.8,0,0,1-.2.733c-.109.114-.111.116-1.1.635a7.959,7.959,0,0,0,3.9,3.906c.52-.993.523-1,.637-1.1a.808.808,0,0,1,.733-.2l4.772,1.1a.8.8,0,0,1,.576.517,3.5,3.5,0,0,1,.148.585A3.642,3.642,0,0,1,18,14.32,3.684,3.684,0,0,1,14.32,18"/></g></svg>